<svg xmlns="http://www.w3.org/2000/svg" width="236" height="64" viewBox="0 0 236 64" fill="none">
<rect width="236" height="64" />
<g clip-path="url(#clip0_0_1)">
<mask id="mask0_0_1" style="mask-type:luminance" maskUnits="userSpaceOnUse" x="0" y="16" width="236" height="32">
<path d="M0 16H235.52V48H0V16Z" fill="white"/>
</mask>
<g mask="url(#mask0_0_1)">
<path d="M46.135 37.6269C45.0988 37.0293 44.2455 36.1601 43.6672 35.113C43.072 34.0467 42.7712 32.8602 42.7712 31.5507C42.7712 30.2413 43.072 29.0547 43.6672 27.9898C44.2455 26.9426 45.0988 26.0734 46.135 25.4758C47.1821 24.8666 48.3456 24.5606 49.6294 24.5606C50.615 24.5606 51.5162 24.7514 52.3366 25.1315C53.1571 25.5104 53.8675 26.0493 54.4717 26.7469L53.3453 27.8515C52.8397 27.2422 52.2906 26.7917 51.6915 26.5062C51.095 26.2208 50.4077 26.0762 49.6307 26.0762C48.6707 26.0762 47.7901 26.3027 46.9901 26.7584C46.1901 27.2147 45.5294 27.8802 45.079 28.6835C44.6054 29.5142 44.3661 30.4704 44.3661 31.5546C44.3661 32.6374 44.6042 33.5936 45.079 34.4243C45.5278 35.2289 46.1888 35.8948 46.9901 36.3494C47.795 36.8062 48.7066 37.0415 49.632 37.0317C51.232 37.0317 52.5926 36.3635 53.7152 35.0298L54.8621 36.1523C54.2402 36.8927 53.465 37.4892 52.5901 37.9008C51.6657 38.3359 50.6549 38.5561 49.6333 38.5446C48.352 38.5446 47.1885 38.2387 46.1402 37.6294L46.135 37.6269ZM56.6131 24.8538H58.1837V28.8L58.112 30.1094H58.1837C58.4422 29.6243 58.8531 29.2186 59.4125 28.8934C59.9708 28.5704 60.6055 28.4029 61.2506 28.4083C62.3962 28.4083 63.2691 28.7475 63.8746 29.4272C64.4762 30.1069 64.7782 31.008 64.7782 32.1293V38.2438H63.2077V32.3712C63.2077 31.511 62.9926 30.8749 62.5626 30.464C62.1312 30.0506 61.5706 29.8458 60.8806 29.8458C60.3917 29.8451 59.9156 30.0017 59.5226 30.2925C59.107 30.5943 58.7706 30.9922 58.5421 31.4522C58.3002 31.9258 58.1811 32.4173 58.1811 32.9306V38.24H56.6106V24.8538H56.6131ZM67.0336 28.7078H68.5312V30.2413H68.6042C68.7872 29.7165 69.1456 29.2838 69.6742 28.9434C70.1664 28.6122 70.745 28.4329 71.3382 28.4275C71.7696 28.4275 72.1382 28.4902 72.4467 28.6157V30.336C72.0339 30.1321 71.5785 30.0294 71.1181 30.0365C70.6611 30.0365 70.2426 30.1658 69.8611 30.4282C69.4797 30.6893 69.1738 31.0426 68.9472 31.4842C68.7192 31.9266 68.6015 32.4175 68.6042 32.9152V38.2426H67.0336V28.7066V28.7078ZM75.2576 37.8675C74.5255 37.4264 73.9279 36.7934 73.5296 36.0371C73.1132 35.2487 72.9002 34.3687 72.9101 33.4771C72.9101 32.5427 73.1162 31.6864 73.5296 30.9158C73.9271 30.1589 74.5248 29.5258 75.2576 29.0854C76.0107 28.6329 76.8751 28.3993 77.7536 28.4109C78.6198 28.3978 79.4727 28.6249 80.2176 29.0671C80.9625 29.5093 81.5704 30.1492 81.9738 30.9158C82.3872 31.689 82.5933 32.5427 82.5933 33.4758C82.5933 34.4102 82.3885 35.2666 81.9738 36.0371C81.5763 36.794 80.9785 37.4272 80.2458 37.8675C79.4938 38.3195 78.6308 38.553 77.7536 38.5421C76.832 38.5421 76 38.3181 75.2576 37.8675ZM79.3677 36.6618C79.8767 36.359 80.2925 35.9219 80.5696 35.3984C80.8717 34.8506 81.0227 34.2093 81.0227 33.4733C81.0227 32.7373 80.8717 32.096 80.5696 31.5482C80.2916 31.0257 79.8759 30.5893 79.3677 30.2861C78.8778 29.9966 78.3188 29.8449 77.7498 29.847C77.1712 29.847 76.631 29.9942 76.1242 30.2861C75.6186 30.5805 75.2154 31.0003 74.9146 31.5482C74.6112 32.096 74.4602 32.7386 74.4602 33.4733C74.4602 34.2093 74.6112 34.8506 74.9146 35.3984C75.2166 35.9462 75.6186 36.3674 76.1242 36.6618C76.6298 36.9562 77.1712 37.0995 77.7498 37.0995C78.3296 37.0995 78.8672 36.9523 79.3677 36.6618ZM84.2368 28.7078H85.7357V30.1082H85.8086C86.0787 29.6218 86.487 29.216 87.0272 28.8922C87.5686 28.5696 88.1408 28.407 88.7462 28.407C89.4362 28.407 90.039 28.5747 90.5472 28.9101C91.0592 29.2454 91.4253 29.696 91.648 30.2554C91.9782 29.6934 92.4211 29.2454 92.9677 28.9114C93.5142 28.5747 94.1517 28.407 94.8787 28.407C95.9642 28.407 96.7782 28.7398 97.3286 29.408C97.8752 30.0762 98.1517 30.9824 98.1517 32.128V38.2413H96.5978V32.3686C96.5978 31.4829 96.4186 30.8416 96.0627 30.4435C95.7043 30.0467 95.1757 29.847 94.4755 29.847C94.0058 29.847 93.5821 29.9853 93.2006 30.2592C92.8111 30.5427 92.5022 30.9231 92.3046 31.3626C92.088 31.831 91.9779 32.3415 91.9821 32.8576V38.2413H90.4102V32.3904C90.4102 31.4918 90.2336 30.8442 89.8752 30.4448C89.5168 30.0467 88.9933 29.847 88.3046 29.847C87.8362 29.847 87.4112 29.9878 87.0298 30.2682C86.6496 30.5472 86.3501 30.921 86.1338 31.3894C85.9177 31.8612 85.8076 32.3746 85.8112 32.8934V38.2413H84.2406V28.7053L84.2368 28.7078ZM102.181 37.888C101.467 37.4526 100.888 36.8278 100.508 36.0832C100.106 35.319 99.9091 34.4538 99.9091 33.4938C99.9091 32.5338 100.097 31.7248 100.472 30.9504C100.828 30.2 101.38 29.56 102.07 29.0982C102.76 28.6374 103.56 28.407 104.472 28.407C105.386 28.407 106.198 28.6157 106.876 29.0342C107.555 29.4515 108.074 30.0288 108.438 30.7648C108.801 31.5008 108.982 32.343 108.982 33.2902C108.982 33.4758 108.965 33.641 108.927 33.7766H101.48C101.518 34.5011 101.688 35.1104 101.997 35.607C102.305 36.105 102.696 36.4774 103.169 36.7283C103.643 36.9792 104.138 37.1021 104.657 37.1021C105.864 37.1021 106.794 36.5286 107.447 35.383L108.776 36.0358C108.395 36.7809 107.825 37.4126 107.123 37.8675C106.428 38.3155 105.587 38.5421 104.602 38.5421C103.702 38.5421 102.893 38.3232 102.181 37.888ZM107.318 32.4659C107.286 32.0488 107.174 31.6418 106.986 31.2678C106.772 30.8528 106.449 30.504 106.052 30.2592C105.628 29.9853 105.096 29.847 104.456 29.847C103.717 29.847 103.091 30.0877 102.579 30.5677C102.067 31.0477 101.733 31.6813 101.573 32.4659H107.318ZM115.818 30.1466H114.081V28.7078H115.818V27.68C115.818 27.0822 115.955 26.5587 116.225 26.1082C116.497 25.6602 116.86 25.3146 117.316 25.0688C117.773 24.8256 118.276 24.704 118.831 24.704C119.388 24.704 119.823 24.7782 120.216 24.928V26.4794C120.011 26.3968 119.802 26.325 119.589 26.2643C119.36 26.2038 119.124 26.1749 118.888 26.1786C118.479 26.1786 118.131 26.3258 117.834 26.6176C117.537 26.912 117.393 27.3178 117.393 27.8426V28.7014H119.812V30.1414H117.393V38.2362H115.821V30.1414L115.818 30.1466ZM123.007 37.8675C122.275 37.4264 121.677 36.7934 121.279 36.0371C120.862 35.2487 120.649 34.3687 120.659 33.4771C120.659 32.5427 120.865 31.6864 121.279 30.9158C121.676 30.1589 122.274 29.5258 123.007 29.0854C123.76 28.6329 124.624 28.3993 125.503 28.4109C126.369 28.3976 127.222 28.6246 127.967 29.0668C128.713 29.509 129.321 30.149 129.724 30.9158C130.14 31.7044 130.353 32.5843 130.344 33.4758C130.344 34.4102 130.136 35.2666 129.724 36.0371C129.327 36.7939 128.729 37.4271 127.996 37.8675C127.244 38.3197 126.38 38.5533 125.503 38.5421C124.581 38.5421 123.749 38.3181 123.007 37.8675ZM127.117 36.6618C127.615 36.3699 128.015 35.9488 128.319 35.3984C128.621 34.8506 128.772 34.2093 128.772 33.4733C128.772 32.7373 128.621 32.096 128.319 31.5482C128.04 31.0259 127.625 30.5895 127.117 30.2861C126.627 29.9966 126.068 29.8449 125.499 29.847C124.92 29.847 124.38 29.9942 123.873 30.2861C123.368 30.5805 122.966 31.0003 122.664 31.5482C122.36 32.096 122.209 32.7386 122.209 33.4733C122.209 34.2093 122.36 34.8506 122.664 35.3984C122.966 35.9462 123.368 36.3674 123.873 36.6618C124.38 36.9562 124.92 37.0995 125.499 37.0995C126.079 37.0995 126.616 36.9523 127.117 36.6618ZM131.987 28.7078H133.485V30.2413H133.558C133.741 29.7165 134.099 29.2838 134.628 28.9434C135.12 28.6124 135.699 28.433 136.292 28.4275C136.723 28.4275 137.092 28.4902 137.4 28.6157V30.336C136.988 30.132 136.532 30.0293 136.072 30.0365C135.615 30.0365 135.195 30.1658 134.815 30.4282C134.433 30.6893 134.127 31.0426 133.901 31.4842C133.673 31.9266 133.555 32.4175 133.558 32.9152V38.2426H131.987V28.7066V28.7078ZM143.519 24.8538H147.51C148.865 24.8538 150.047 25.1366 151.058 25.705C152.047 26.2518 152.856 27.0746 153.386 28.073C153.926 29.0816 154.198 30.2413 154.198 31.5482C154.198 32.855 153.926 34.0147 153.386 35.0246C152.856 36.0226 152.047 36.8448 151.058 37.3914C150.049 37.9597 148.865 38.2426 147.51 38.2426H143.519V24.8538ZM147.51 36.7283C149.075 36.7283 150.314 36.2726 151.233 35.3626C152.15 34.4538 152.609 33.1814 152.609 31.5482C152.609 29.9149 152.15 28.6426 151.233 27.7338C150.314 26.8237 149.075 26.368 147.51 26.368H145.071V36.7258H147.51V36.7283ZM157.691 37.888C156.977 37.4524 156.398 36.8277 156.018 36.0832C155.617 35.319 155.419 34.4538 155.419 33.4938C155.419 32.5338 155.608 31.7248 155.983 30.9504C156.339 30.1999 156.891 29.5598 157.581 29.0982C158.271 28.6374 159.071 28.407 159.983 28.407C160.897 28.407 161.709 28.6157 162.386 29.0342C163.064 29.4515 163.585 30.0288 163.949 30.7648C164.312 31.5008 164.493 32.343 164.493 33.2902C164.493 33.4758 164.475 33.641 164.438 33.7766H156.991C157.028 34.5011 157.199 35.1104 157.508 35.607C157.816 36.105 158.207 36.4774 158.68 36.7283C159.154 36.9792 159.649 37.1021 160.166 37.1021C161.373 37.1021 162.305 36.5286 162.957 35.383L164.285 36.0358C163.905 36.7808 163.336 37.4126 162.634 37.8675C161.938 38.3155 161.098 38.5421 160.111 38.5421C159.213 38.5421 158.404 38.3232 157.691 37.888ZM162.829 32.4659C162.797 32.0489 162.684 31.642 162.497 31.2678C162.283 30.8529 161.96 30.5041 161.563 30.2592C161.138 29.9853 160.605 29.847 159.965 29.847C159.227 29.847 158.602 30.0877 158.09 30.5677C157.578 31.0477 157.243 31.6813 157.083 32.4659H162.829ZM165.101 28.7078H166.781L169.702 36.3725H169.741L172.696 28.7078H174.34L170.497 38.2438H168.909L165.101 28.7078ZM177.129 37.888C176.415 37.4526 175.837 36.8279 175.457 36.0832C175.055 35.319 174.857 34.4538 174.857 33.4938C174.857 32.5338 175.046 31.7248 175.421 30.9504C175.777 30.2001 176.329 29.5601 177.019 29.0982C177.709 28.6374 178.509 28.407 179.421 28.407C180.335 28.407 181.147 28.6157 181.825 29.0342C182.501 29.4499 183.042 30.0505 183.387 30.7648C183.75 31.5008 183.931 32.343 183.931 33.2902C183.931 33.4758 183.913 33.641 183.876 33.7766H176.429C176.466 34.5011 176.637 35.1104 176.946 35.607C177.254 36.105 177.645 36.4774 178.118 36.7283C178.593 36.9792 179.087 37.1021 179.604 37.1021C180.813 37.1021 181.743 36.5286 182.395 35.383L183.725 36.0358C183.344 36.7806 182.774 37.4122 182.072 37.8675C181.377 38.3155 180.536 38.5421 179.549 38.5421C178.651 38.5421 177.842 38.3232 177.129 37.888ZM182.267 32.4659C182.236 32.0488 182.123 31.6417 181.935 31.2678C181.721 30.8529 181.398 30.5041 181.001 30.2592C180.577 29.9853 180.045 29.847 179.405 29.847C178.665 29.847 178.04 30.0877 177.528 30.5677C177.016 31.0477 176.681 31.6813 176.521 32.4659H182.267ZM185.757 24.8538H187.328V38.2426H185.757V24.8538ZM191.412 37.8675C190.681 37.4261 190.083 36.7932 189.684 36.0371C189.268 35.2485 189.056 34.3687 189.065 33.4771C189.065 32.5427 189.272 31.6864 189.684 30.9158C190.082 30.1591 190.68 29.526 191.412 29.0854C192.166 28.6332 193.03 28.3996 193.908 28.4109C194.834 28.4109 195.663 28.6336 196.402 29.0842C197.14 29.5322 197.716 30.144 198.13 30.9146C198.547 31.7033 198.76 32.5838 198.749 33.4758C198.749 34.4102 198.543 35.2666 198.13 36.0371C197.732 36.7939 197.135 37.427 196.402 37.8675C195.65 38.3197 194.786 38.5533 193.908 38.5421C192.987 38.5421 192.155 38.3181 191.412 37.8675ZM195.524 36.6618C196.032 36.3588 196.448 35.9217 196.724 35.3984C197.028 34.8506 197.179 34.2093 197.179 33.4733C197.179 32.7373 197.028 32.096 196.724 31.5482C196.456 31.0329 196.052 30.6014 195.554 30.3011C195.057 30.0007 194.487 29.8432 193.906 29.8458C193.323 29.8445 192.751 30.0024 192.251 30.3024C191.751 30.6024 191.343 31.0331 191.069 31.5482C190.767 32.096 190.616 32.7386 190.616 33.4733C190.616 34.2093 190.767 34.8506 191.069 35.3984C191.373 35.9462 191.773 36.3674 192.28 36.6618C192.786 36.9562 193.327 37.0995 193.906 37.0995C194.475 37.1018 195.034 36.9506 195.524 36.6618ZM200.411 28.7078H201.908V30.1286H201.981C202.264 29.6435 202.694 29.2339 203.264 28.905C203.852 28.5714 204.519 28.4008 205.196 28.4109C206.034 28.4109 206.796 28.6285 207.488 29.0637C208.178 29.4989 208.719 30.1056 209.115 30.8774C209.508 31.6506 209.705 32.5158 209.705 33.4758C209.705 34.4358 209.508 35.319 209.115 36.0845C208.746 36.8222 208.184 37.4459 207.488 37.8893C206.799 38.3245 206.034 38.5421 205.196 38.5421C204.519 38.5522 203.852 38.3816 203.264 38.048C202.692 37.7178 202.264 37.3146 201.981 36.841H201.908L201.981 38.1504V42.2835H200.411V28.7078ZM206.546 36.6554C207.039 36.3403 207.438 35.8981 207.7 35.3754C207.988 34.8211 208.134 34.1888 208.134 33.4758C208.134 32.7642 207.988 32.1344 207.7 31.5776C207.438 31.0548 207.039 30.6126 206.546 30.2976C206.088 30.0043 205.556 29.8483 205.012 29.8483C204.469 29.8483 203.937 30.0043 203.479 30.2976C202.989 30.6092 202.593 31.0487 202.333 31.5686C202.052 32.1165 201.908 32.7526 201.908 33.4758C201.908 34.2003 202.052 34.8365 202.333 35.383C202.616 35.9309 203 36.3558 203.479 36.6554C203.937 36.9487 204.469 37.1046 205.012 37.1046C205.556 37.1046 206.088 36.9487 206.546 36.6554ZM213.309 37.888C212.596 37.4524 212.017 36.8277 211.636 36.0832C211.236 35.319 211.037 34.4538 211.037 33.4938C211.037 32.5338 211.227 31.7248 211.602 30.9504C211.957 30.1999 212.509 29.5598 213.199 29.0982C213.888 28.6374 214.688 28.407 215.602 28.407C216.515 28.407 217.327 28.6157 218.004 29.0342C218.683 29.4515 219.203 30.0288 219.567 30.7648C219.931 31.5008 220.111 32.343 220.111 33.2902C220.111 33.4758 220.093 33.641 220.055 33.7766H212.608C212.646 34.5011 212.818 35.1104 213.126 35.607C213.435 36.105 213.824 36.4774 214.299 36.7283C214.772 36.9792 215.267 37.1021 215.785 37.1021C216.992 37.1021 217.923 36.5286 218.575 35.383L219.904 36.0358C219.524 36.7809 218.954 37.4126 218.252 37.8675C217.556 38.3155 216.716 38.5421 215.73 38.5421C214.831 38.5421 214.022 38.3232 213.309 37.888ZM218.447 32.4659C218.416 32.0487 218.303 31.6417 218.115 31.2678C217.902 30.8526 217.579 30.5038 217.181 30.2592C216.756 29.9853 216.224 29.847 215.584 29.847C214.845 29.847 214.22 30.0877 213.708 30.5677C213.196 31.0477 212.861 31.6813 212.701 32.4659H218.447ZM221.938 28.7078H223.436V30.2413H223.508C223.692 29.7165 224.05 29.2838 224.579 28.9434C225.071 28.6124 225.649 28.433 226.243 28.4275C226.674 28.4275 227.043 28.4902 227.351 28.6157V30.336C226.938 30.132 226.483 30.0293 226.022 30.0365C225.565 30.0365 225.147 30.1658 224.765 30.4282C224.377 30.6982 224.063 31.0613 223.852 31.4842C223.624 31.9266 223.506 32.4175 223.508 32.9152V38.2426H221.938V28.7066V28.7078ZM229.257 37.824C228.6 37.3711 228.097 36.7279 227.817 35.9808L229.222 35.3459C229.454 35.9194 229.804 36.361 230.267 36.6733C230.729 36.9843 231.235 37.1405 231.79 37.1405C232.381 37.1405 232.887 37.0202 233.307 36.7757C233.725 36.5325 233.934 36.1869 233.934 35.7363C233.938 35.5469 233.894 35.3596 233.807 35.1914C233.72 35.0233 233.592 34.8797 233.435 34.7738C233.102 34.5306 232.579 34.3245 231.863 34.1466L230.717 33.847C229.966 33.6614 229.35 33.344 228.87 32.8934C228.39 32.4454 228.148 31.8656 228.148 31.1526C228.148 30.6061 228.311 30.1235 228.637 29.7062C228.979 29.2759 229.429 28.9434 229.94 28.7424C230.482 28.5184 231.067 28.407 231.694 28.407C232.521 28.407 233.257 28.5862 233.902 28.9485C234.548 29.3107 235.008 29.8138 235.278 30.4653L233.911 31.1002C233.492 30.2528 232.748 29.8291 231.675 29.8291C231.156 29.8291 230.706 29.9494 230.316 30.1939C229.929 30.4371 229.734 30.7443 229.734 31.1181C229.734 31.4688 229.87 31.7517 230.141 31.9693C230.412 32.1869 230.819 32.3635 231.36 32.5018L232.727 32.8576C233.652 33.097 234.348 33.4464 234.816 33.9149C235.284 34.3821 235.517 34.9542 235.517 35.625C235.517 36.2112 235.351 36.7258 235.02 37.1674C234.671 37.6231 234.204 37.9753 233.67 38.1862C233.072 38.4286 232.431 38.5495 231.785 38.5421C230.775 38.5421 229.932 38.3002 229.254 37.8202L229.257 37.824Z" fill="#606367"/>
<path d="M29.5002 24C25.1354 16.352 15.465 13.7293 7.90399 18.1466C5.49513 19.5572 3.49981 21.5768 2.11839 24.0026L3.06559 41.2813L29.5002 24Z" fill="#E84436"/>
<path d="M8.96512 35.9987L2.12096 24.0013C-2.2464 31.6544 0.345601 41.4387 7.90656 45.8547C10.3046 47.2573 13.0325 47.9968 15.8106 47.9974L31.3037 31.9987L8.96256 35.9987H8.96512Z" fill="#34A653"/>
<path d="M22.6586 35.9987L15.8131 47.9974C24.5466 47.9974 31.6211 40.8294 31.6211 31.9962C31.6225 29.192 30.8928 26.436 29.504 24H15.8131L22.6586 35.9987Z" fill="url(#paint0_linear_0_1)"/>
<path d="M15.8131 40C20.1805 40 23.7171 36.416 23.7171 32.0013C23.7171 27.5853 20.1766 24.0038 15.8131 24.0038C11.4496 24.0038 7.9104 27.5866 7.9104 32C7.9104 36.416 11.4509 39.9987 15.8144 39.9987L15.8131 40Z" fill="white"/>
<path d="M15.8131 38.336C19.273 38.336 22.0736 35.5021 22.0762 32.0013C22.0762 28.5018 19.2755 25.6666 15.817 25.6653C12.3571 25.664 9.55647 28.5018 9.55647 32.0013C9.55647 35.4982 12.3597 38.3373 15.8157 38.3373L15.8131 38.336Z" fill="#4383F2"/>
</g>
</g>
<defs>
<linearGradient id="paint0_linear_0_1" x1="13.5129" y1="48.0038" x2="27.4496" y2="24.1907" gradientUnits="userSpaceOnUse">
<stop stop-color="#FAC735"/>
<stop offset="1" stop-color="#F8BA07"/>
</linearGradient>
<clipPath id="clip0_0_1">
<rect width="235.52" height="32" fill="white" transform="translate(0 16)"/>
</clipPath>
</defs>
</svg>